<svg id="OBJECTS" xmlns="http://www.w3.org/2000/svg" viewBox="0 0 250.31 272"><defs><style>.cls-1{fill:#213c54;}.cls-2{opacity:0.83;}.cls-3,.cls-4,.cls-5,.cls-6{fill:#fff;}.cls-3{opacity:0.34;}.cls-3,.cls-4,.cls-5{isolation:isolate;}.cls-4{opacity:0.18;}.cls-5,.cls-6{fill-rule:evenodd;}.cls-5{opacity:0.25;}</style></defs><path class="cls-1" d="M250.31,0V272H34C15.21,272,0,261,0,247.31V24.69C0,11.05,15.21,0,34,0Z"/><g class="cls-2"><path class="cls-3" d="M250.31,259.58V272H34C15.21,272,0,261,0,247.31V194c40.71-10.89,91.72-15.5,200.25,45.93C218.08,250.05,234.67,256.27,250.31,259.58Z"/><path class="cls-4" d="M250.31,182v90H34C15.21,272,0,261,0,247.31V224.69C94.11,229.06,163.77,180.77,250.31,182Z"/></g><path class="cls-5" d="M.13,24.69V50.26c34.34-18.78,82-30,147.08-20.26,44.77,6.71,78.17,5.14,103.1-1.1V0H34.06C15.33,0,.14,11.05.13,24.69Z"/><path class="cls-6" d="M34.35,82.67l.78,1.41a11.23,11.23,0,0,0,4.48,4.48l1.41.77-1.41.78a11.23,11.23,0,0,0-4.48,4.48L34.35,96l-.77-1.41a11.23,11.23,0,0,0-4.48-4.48l-1.42-.78,1.42-.77a11.23,11.23,0,0,0,4.48-4.48Z"/><path class="cls-6" d="M95.14,47.33l.73,1.34a10.74,10.74,0,0,0,4.27,4.26l1.34.74-1.34.73a10.74,10.74,0,0,0-4.27,4.26L95.14,60l-.73-1.34a10.78,10.78,0,0,0-4.26-4.26l-1.35-.73,1.35-.74a10.78,10.78,0,0,0,4.26-4.26Z"/><path class="cls-6" d="M147.42,98l.77,1.41a11.32,11.32,0,0,0,4.49,4.48l1.41.78-1.41.77a11.32,11.32,0,0,0-4.49,4.48l-.77,1.41-.77-1.41a11.25,11.25,0,0,0-4.49-4.48l-1.41-.77,1.41-.78a11.25,11.25,0,0,0,4.49-4.48Z"/><path class="cls-6" d="M94.56,179.33l.63,1.17a9.43,9.43,0,0,0,3.71,3.7l1.16.63-1.16.64a9.3,9.3,0,0,0-3.71,3.7l-.63,1.16-.64-1.16a9.28,9.28,0,0,0-3.7-3.7l-1.17-.64,1.17-.63a9.4,9.4,0,0,0,3.7-3.7Z"/></svg>